<?xml version="1.0" encoding="UTF-8"?><svg id="Layer_2" xmlns="http://www.w3.org/2000/svg" viewBox="0 0 31.88 31.68"><defs><style>.cls-1{fill:#36b22d;}.cls-2{fill:none;}.cls-3{fill:#00a5e3;}</style></defs><g id="Layer_1-2"><g><g><g><path class="cls-1" d="m29.22,7.44c2.6,3.88,3.37,8.92,1.98,13.38-.34-.25-.69-.48-1.04-.71,1.11-4.04.4-8.53-1.94-12.01l1-.67Z"/><path class="cls-3" d="m30.11,23.5c-2.13,4.17-6.23,7.23-10.81,8.18l-.24-1.18c2.04-.44,3.99-1.3,5.69-2.53,1.67-1.26,3.1-2.84,4.11-4.67.41.08.83.15,1.25.21Z"/><path class="cls-1" d="m29.91,23.88c.61-1.09,1.07-2.25,1.42-3.45l-1.16-.32c-.12.37-.14.77-.07,1.21l.06.64c-.03.64-.13,1.26-.25,1.91Z"/><path class="cls-3" d="m28.86,23.3c.18-.35.46-.64.8-.91l.5-.42.05.66c.02.45-.1.87-.29,1.25l-1.05-.59Z"/><polygon class="cls-2" points="27.64 24.13 28.13 24.47 28.79 23.43 28.26 23.13 27.64 24.13"/><polygon class="cls-2" points="29.12 25.15 29.62 25.5 30.36 24.32 29.83 24.03 29.12 25.15"/></g><g><path class="cls-1" d="m3.03,7.44C5.63,3.57,10,.93,14.66.53c-.1.4-.18.83-.26,1.24-4.16.48-8.04,2.86-10.37,6.34l-1-.67Z"/><path class="cls-3" d="m17.56.53c4.67.39,9.05,3.04,11.66,6.91l-1,.67c-2.34-3.48-6.21-5.86-10.37-6.34-.08-.42-.18-.84-.29-1.24Z"/><path class="cls-1" d="m17.99.57c-.62-.08-1.24-.08-1.86-.12-.62.04-1.25.04-1.86.12l.14,1.19c.39-.07.77-.15,1.15-.39l.57-.33c.6-.16,1.22-.36,1.86-.48Z"/><path class="cls-3" d="m17.85,1.77c-.39-.07-.77-.15-1.15-.38l-.58-.33.6-.27c.41-.17.85-.29,1.27-.21l-.14,1.19Z"/><path class="cls-2" d="m19.08,2.58l.13-.59c-.4-.09-.81-.13-1.21-.2l-.08.6c.39.07.78.1,1.16.19Z"/><path class="cls-2" d="m19.46.82l.13-.59c-.45-.1-.91-.15-1.37-.23l-.08.6c.44.07.88.12,1.32.22Z"/></g><g><path class="cls-1" d="m12.95,31.68c-4.57-.94-8.67-3.99-10.8-8.15.42-.07.83-.14,1.24-.23,1.01,1.83,2.45,3.42,4.11,4.67,1.69,1.23,3.64,2.09,5.69,2.53l-.24,1.18Z"/><path class="cls-3" d="m1.05,20.85C-.35,16.38.42,11.32,3.03,7.44l1,.67c-2.34,3.47-3.05,7.97-1.94,12.01-.35.23-.69.48-1.03.73Z"/><path class="cls-1" d="m.92,20.44c.35,1.19.81,2.36,1.42,3.45l1.05-.59c-.18-.35-.46-.64-.8-.91l-.5-.42c-.44-.47-.78-1-1.17-1.54Z"/><path class="cls-3" d="m2.08,20.12c.12.37.14.77.07,1.21l-.06.65-.5-.44c-.31-.31-.54-.69-.67-1.1l1.16-.32Z"/><polygon class="cls-2" points="2.37 18.67 1.78 18.77 2.04 19.97 2.63 19.82 2.37 18.67"/><polygon class="cls-2" points=".59 18.98 0 19.08 .3 20.44 .88 20.28 .59 18.98"/></g></g><g><g><path class="cls-1" d="m16.12,5.89c2.27.02,4.56.76,6.34,2.2,1.78,1.41,3.12,3.41,3.63,5.63-.42-.03-.84-.05-1.26-.05-.54-1.88-1.69-3.57-3.26-4.74-1.55-1.2-3.5-1.81-5.45-1.84v-1.21Z"/><path class="cls-3" d="m26.38,16.54c-.07,2.28-.94,4.53-2.42,6.27-1.47,1.75-3.54,2.98-5.78,3.43l-.24-1.18c1.91-.39,3.69-1.43,4.97-2.9,1.3-1.46,2.09-3.35,2.24-5.3.41-.09.81-.2,1.22-.33Z"/><path class="cls-1" d="m26.37,16.96c.09-1.21-.02-2.44-.37-3.61l-1.16.33c.09.36.29.68.53,1.01l.38.51c.24.55.46,1.14.62,1.76Z"/><path class="cls-3" d="m25.17,16.86c.01-.37.15-.72.31-1.1l.27-.57.33.55c.24.38.31.8.29,1.22l-1.2-.09Z"/><path class="cls-2" d="m24.38,18.01l.59.13c.1-.37.13-.76.18-1.13l-.6-.05c-.05.35-.08.71-.17,1.06Z"/><path class="cls-2" d="m26.15,18.4l.59.13c.12-.45.16-.91.22-1.36l-.6-.05c-.06.43-.1.86-.21,1.29Z"/></g><g><path class="cls-1" d="m14.06,26.24c-2.24-.45-4.3-1.68-5.77-3.43-1.48-1.73-2.35-3.98-2.42-6.25.41.12.81.22,1.22.3.15,1.95.94,3.84,2.24,5.3,1.29,1.47,3.06,2.5,4.97,2.89l-.24,1.18Z"/><path class="cls-3" d="m6.15,13.75c.51-2.23,1.85-4.24,3.63-5.65,1.78-1.44,4.07-2.18,6.35-2.2v1.21c-1.95.02-3.9.63-5.45,1.84-1.57,1.17-2.73,2.86-3.26,4.74-.42,0-.84.03-1.26.08Z"/><path class="cls-1" d="m6.25,13.34c-.34,1.17-.46,2.4-.37,3.61l1.2-.09c-.01-.37-.15-.72-.31-1.1l-.27-.57c-.12-.59-.23-1.21-.25-1.85Z"/><path class="cls-3" d="m7.41,13.67c-.09.35-.29.68-.53,1.01l-.38.51-.21-.6c-.16-.42-.14-.85-.04-1.25l1.16.33Z"/><path class="cls-2" d="m8.4,12.71l-.55-.25c-.16.35-.28.71-.41,1.07l.58.17c.12-.34.23-.68.38-1Z"/><path class="cls-2" d="m6.75,11.97l-.55-.25c-.2.42-.34.86-.49,1.29l.58.17c.14-.41.27-.83.46-1.22Z"/></g></g><g><path class="cls-1" d="m15.27,20.27c-1.87-.35-3.35-2.09-3.38-4-.11-1.9,1.24-3.75,3.07-4.24,0,.41.04.83.11,1.23-1.25.44-2.09,1.76-1.97,3.08.08,1.32,1.12,2.5,2.42,2.74l-.24,1.18Z"/><path class="cls-3" d="m17.27,12.03c1.84.48,3.2,2.33,3.09,4.23-.03,1.91-1.51,3.65-3.38,4.01l-.24-1.18c1.29-.25,2.34-1.43,2.42-2.74.12-1.31-.72-2.64-1.97-3.08.06-.4.09-.83.09-1.24Z"/><path class="cls-1" d="m17.6,12.13c-.94-.36-2.01-.36-2.95,0l.42,1.13c.23-.09.44-.24.67-.47.12-.11.25-.21.39-.32.43-.2.93-.32,1.48-.33Z"/><path class="cls-3" d="m17.18,13.26c-.23-.09-.44-.23-.67-.47-.12-.11-.25-.21-.39-.32.14-.09.29-.19.46-.27.33-.16.7-.19,1.02-.06l-.42,1.13Z"/><path class="cls-2" d="m17.57,14.16l.36-.48c-.2-.16-.43-.28-.67-.38l-.23.56c.19.08.37.18.54.3Z"/><path class="cls-2" d="m18.65,12.71l.36-.48c-.32-.25-.69-.44-1.07-.6l-.23.56c.33.14.65.31.93.53Z"/></g></g></g></svg>
