<?xml version="1.0" encoding="UTF-8"?><svg id="Layer_2" xmlns="http://www.w3.org/2000/svg" viewBox="0 0 38.12 37.87"><defs><style>.cls-1{fill:#36b22d;}.cls-2{fill:none;}.cls-3{fill:#00a5e3;}</style></defs><g id="Layer_1-2"><g><g><g><path class="cls-1" d="m34.92,8.81c3.12,4.65,4.04,10.7,2.38,16.04-.34-.27-.69-.54-1.04-.79,1.35-4.9.48-10.35-2.36-14.57l1.02-.69Z"/><path class="cls-3" d="m35.98,28.07c-2.55,5-7.47,8.67-12.96,9.8l-.25-1.21c2.48-.53,4.85-1.58,6.9-3.07,2.02-1.52,3.77-3.44,4.99-5.67.43.06.87.11,1.32.14Z"/><path class="cls-1" d="m35.75,28.53c.73-1.3,1.28-2.7,1.7-4.13l-1.19-.33c-.15.45-.19.93-.14,1.45l.02.76c-.07.76-.23,1.49-.4,2.25Z"/><path class="cls-3" d="m34.67,27.93c.21-.42.54-.79.92-1.13l.55-.53v.78c0,.53-.16,1.02-.39,1.47l-1.07-.6Z"/><polygon class="cls-2" points="33.29 29 33.79 29.35 34.59 28.08 34.05 27.78 33.29 29"/><polygon class="cls-2" points="34.81 30.05 35.31 30.4 36.19 29 35.66 28.69 34.81 30.05"/></g><g><path class="cls-1" d="m3.52,8.81C6.65,4.17,11.88,1,17.47.53c-.12.41-.24.85-.34,1.28-5.05.58-9.75,3.47-12.59,7.69l-1.02-.69Z"/><path class="cls-3" d="m20.94.52c5.6.46,10.85,3.64,13.98,8.28l-1.02.69c-2.83-4.22-7.54-7.11-12.59-7.69-.11-.43-.23-.87-.37-1.28Z"/><path class="cls-1" d="m21.46.58c-.74-.1-1.49-.09-2.23-.14-.74.05-1.49.04-2.23.14l.14,1.22c.47-.08.94-.17,1.4-.41l.69-.34c.72-.16,1.47-.37,2.23-.47Z"/><path class="cls-3" d="m21.31,1.8c-.47-.08-.94-.17-1.39-.41l-.7-.34.72-.27c.49-.17,1.01-.29,1.52-.2l-.14,1.22Z"/><path class="cls-2" d="m22.83,2.68l.13-.6c-.48-.11-.98-.16-1.47-.24l-.08.61c.47.08.95.13,1.42.23Z"/><path class="cls-2" d="m23.22.87l.13-.6c-.54-.12-1.09-.18-1.63-.27l-.08.61c.53.09,1.06.14,1.58.26Z"/></g><g><path class="cls-1" d="m15.42,37.87c-2.73-.59-5.35-1.74-7.57-3.43-2.22-1.69-4.1-3.85-5.37-6.34.44-.05.87-.1,1.3-.17,1.22,2.22,2.97,4.14,4.99,5.67,2.05,1.49,4.42,2.54,6.9,3.07l-.25,1.21Z"/><path class="cls-3" d="m1.16,24.88C-.52,19.53.4,13.46,3.52,8.81l1.02.69c-2.84,4.22-3.7,9.67-2.36,14.57-.35.26-.69.54-1.03.82Z"/><path class="cls-1" d="m1,24.39c.42,1.43.97,2.83,1.7,4.13l1.07-.6c-.21-.43-.54-.79-.92-1.13l-.55-.53c-.49-.58-.87-1.23-1.3-1.88Z"/><path class="cls-3" d="m2.19,24.06c.14.45.19.93.14,1.45l-.02.76-.56-.55c-.34-.39-.6-.85-.75-1.33l1.19-.33Z"/><polygon class="cls-2" points="2.43 22.33 1.82 22.43 2.14 23.89 2.74 23.73 2.43 22.33"/><polygon class="cls-2" points=".61 22.65 0 22.75 .36 24.37 .95 24.21 .61 22.65"/></g></g><g><g><path class="cls-1" d="m16.36,12.16h10.64c.18,0,.37.03.55.08.36.09.7.25.99.48.59.45.97,1.15,1.03,1.88-.43-.13-.86-.19-1.28-.16-.1-.37-.36-.7-.71-.87-.17-.09-.36-.15-.55-.16-.17-.01-.52,0-.77,0h-9.9v-1.23Z"/><path class="cls-3" d="m29.58,17.47v6.84c-.04.74-.4,1.45-.97,1.92-.28.23-.62.41-.98.51-.34.11-.78.1-1,.1h-.25c-.07,0-.12.07-.18.11l-.62.52-1.31,1.09-.79-.95,1.27-1.06.64-.53c.16-.13.31-.28.5-.35.2-.08.39-.05.58-.06.4-.01.56,0,.74-.04.19-.04.37-.12.52-.23.32-.22.54-.57.59-.95.03-.16.02-.45.02-.73v-5.78l1.23-.42Z"/><path class="cls-1" d="m29.58,17.89v-2.72c0-.26.01-.69-.1-1.07l-1.18.34s.05.16.14.44c.05.2.13.41.23.61l.31.59.61,1.82Z"/><path class="cls-3" d="m28.35,17.89c0-.41.1-.82.31-1.22l.31-.59.31.59c.21.4.31.81.31,1.22h-1.23Z"/><rect class="cls-2" x="27.74" y="18.05" width=".62" height="1.3"/><rect class="cls-2" x="29.58" y="18.05" width=".62" height="1.3"/></g><g><path class="cls-1" d="m21.25,27.12v-.42s.01-.21.01-.21c0,.1.04.2.11.26.05.07.21.1.23.1h-9.14c-.69.02-1.47-.27-1.97-.79-.52-.51-.8-1.3-.77-1.98.41.13.83.29,1.25.3.05.38.27.74.58.96.16.11.33.19.52.24.09.02.19.03.29.03h.4s3.3,0,3.3,0h5.6c.23.01.46.12.61.3.16.16.23.45.22.61v.21s-.01.41-.01.41l-1.23-.02Z"/><path class="cls-3" d="m9.72,21.26v-6.39c0-.16.01-.36.05-.54.13-.73.59-1.39,1.22-1.77.31-.19.67-.32,1.03-.37.4-.05.64-.02.93-.03h3.41v1.23h-3.3c-.25,0-.6,0-.78,0-.19.01-.38.07-.55.16-.34.17-.61.5-.72.86-.11.3-.04.93-.06,1.47v4.95l-1.23.42Z"/><path class="cls-1" d="m9.72,20.84v2.72c0,.31-.02.56.03.99l1.22-.17s-.02-.09-.04-.22c-.01-.1-.03-.21-.06-.31-.05-.2-.13-.41-.23-.61l-.31-.59-.61-1.82Z"/><path class="cls-3" d="m10.95,20.84c0,.41-.1.82-.31,1.22l-.31.59-.31-.59c-.21-.4-.31-.81-.31-1.22h1.23Z"/><rect class="cls-2" x="10.95" y="19.39" width=".62" height="1.3"/><rect class="cls-2" x="9.1" y="19.39" width=".62" height="1.3"/></g><g><polygon class="cls-3" points="21.23 28.46 22.46 28.48 23.25 29.43 23.2 29.47 23.14 29.52 23.09 29.56 23.03 29.6 22.98 29.64 22.93 29.68 22.87 29.72 22.82 29.76 22.76 29.79 22.71 29.83 22.65 29.86 22.6 29.9 22.55 29.93 22.49 29.96 22.44 29.99 22.38 30.03 22.33 30.05 22.28 30.08 22.22 30.11 22.17 30.14 22.12 30.16 22.06 30.19 22.01 30.21 21.96 30.23 21.91 30.25 21.86 30.27 21.81 30.29 21.75 30.31 21.71 30.33 21.66 30.34 21.61 30.36 21.56 30.37 21.54 30.32 21.52 30.28 21.5 30.23 21.48 30.18 21.46 30.13 21.45 30.08 21.43 30.02 21.41 29.97 21.4 29.92 21.38 29.86 21.37 29.8 21.35 29.75 21.34 29.69 21.33 29.63 21.32 29.57 21.31 29.51 21.3 29.45 21.29 29.39 21.28 29.33 21.27 29.26 21.26 29.2 21.25 29.14 21.25 29.07 21.24 29 21.24 28.94 21.23 28.87 21.23 28.8 21.23 28.74 21.23 28.67 21.23 28.6 21.23 28.53 21.23 28.46"/><polyline class="cls-1" points="21.25 27.12 21.23 28.46 22.46 28.48 22.48 27.14"/><polyline class="cls-3" points="23.25 29.43 24.28 28.57 23.49 27.62 22.46 28.48"/><polygon class="cls-3" points="21.25 27.12 21.25 27.15 21.25 27.19 21.25 27.22 21.25 27.25 21.25 27.29 21.25 27.32 21.25 27.36 21.26 27.39 21.26 27.42 21.26 27.45 21.27 27.49 21.27 27.52 21.27 27.55 21.28 27.58 21.28 27.61 21.29 27.64 21.29 27.67 21.3 27.7 21.31 27.73 21.31 27.76 21.32 27.79 21.33 27.82 21.33 27.84 21.34 27.87 21.35 27.9 21.36 27.92 21.37 27.95 21.38 27.97 21.38 28 21.39 28.02 21.4 28.05 21.41 28.07 21.42 28.09 21.43 28.12 21.44 28.14 21.46 28.16 21.47 28.18 21.48 28.2 21.49 28.22 21.5 28.24 21.51 28.25 21.53 28.27 21.54 28.29 21.55 28.3 21.56 28.32 21.58 28.33 21.59 28.35 21.6 28.36 21.62 28.37 21.63 28.39 21.65 28.4 21.66 28.41 21.68 28.42 21.69 28.43 21.7 28.43 21.72 28.44 21.73 28.45 21.75 28.45 21.76 28.46 21.78 28.46 21.8 28.47 21.81 28.47 21.83 28.47 21.84 28.47 21.23 28.46 21.25 27.12"/><rect class="cls-2" x="19.55" y="29.49" width="2.69" height=".62" transform="translate(-9.23 50.22) rotate(-89.09)"/><rect class="cls-2" x="21.07" y="30.22" width="2.69" height=".62" transform="translate(-14.35 21.45) rotate(-39.84)"/></g></g></g></g></svg>
